<?xml version="1.0" encoding="UTF-8"?>
<!-- Generator: Adobe Illustrator 15.1.0, SVG Export Plug-In  -->
<!DOCTYPE svg PUBLIC "-//W3C//DTD SVG 1.1//EN" "http://www.w3.org/Graphics/SVG/1.1/DTD/svg11.dtd" [
	<!ENTITY ns_flows "http://ns.adobe.com/Flows/1.0/">
]>
<svg version="1.1" xmlns="http://www.w3.org/2000/svg" xmlns:xlink="http://www.w3.org/1999/xlink" xmlns:a="http://ns.adobe.com/AdobeSVGViewerExtensions/3.0/" x="0px" y="0px" width="578px" height="151px" viewBox="-1 -1 578 151" overflow="visible" enable-background="new -1 -1 578 151" xml:space="preserve">
<defs>
</defs>
<path fill="#1F2B7D" d="M94.139,2.881c0,0-17.792-2.881-46.268-2.881h0.004C19.399,0,1.606,2.882,1.606,2.882  s-9.642,70.79,18.318,113.265c9.477,14.398,27.89,28.533,27.948,28.576h-0.004l0.003,0.002h0.002h0.002l0.003-0.002h-0.004  c0.057-0.043,18.471-14.178,27.948-28.576C103.781,73.671,94.139,2.881,94.139,2.881z"/>
<path fill="#231F20" d="M7.829,19.328c0.076,0.329,0.207,0.553,0.207,0.553c0.571-0.901,1.757-0.998,2.608-0.934  C10.032,18.834,8.691,18.69,7.829,19.328z"/>
<path fill="none" d="M10.691,24.453c0.077,0.099,0.188,0.18,0.313,0.194c-0.098-0.053-0.221-0.114-0.309-0.2  C10.693,24.449,10.692,24.451,10.691,24.453z"/>
<path fill="#231F20" d="M10.787,22.09c0.028,0.01,0.054,0.018,0.08,0.026c0.035,0.01,0.067,0.02,0.098,0.027  c0.011,0.004,0.022,0.007,0.033,0.01c0.035,0.009,0.068,0.017,0.096,0.023c0.015-0.039,0.026-0.077,0.04-0.116  c-0.373-0.119-0.856-0.292-1.038-0.266c-0.057,0.01-0.106,0.025-0.154,0.046c0.23,0.045,0.558,0.16,0.825,0.245  C10.774,22.087,10.78,22.089,10.787,22.09z M9.696,25.524c-0.028-0.002-0.054-0.004-0.074-0.007  c-0.017-0.003-0.036-0.003-0.055-0.001c-0.008,0-0.017,0.002-0.026,0.004c-0.01,0-0.021,0.002-0.033,0.005  c-0.011,0.003-0.022,0.006-0.034,0.009c-0.008,0.003-0.018,0.006-0.027,0.01c-0.014,0.004-0.028,0.009-0.042,0.015L9.405,25.56  c-0.005,0.06-0.01,0.111-0.003,0.14c0.138-0.052,0.276-0.132,0.397-0.177c-0.035,0.002-0.065,0.002-0.093,0.002  C9.702,25.524,9.699,25.524,9.696,25.524z M21.292,40.701c0.19,0.156,0.356,0.304,0.502,0.444c0.019,0.017,0.038,0.04,0.056,0.059  c0.092,0.091,0.17,0.176,0.245,0.258c0.067,0.073,0.132,0.149,0.195,0.229c0.017,0.023,0.036,0.045,0.052,0.068  c0.253,0.338,0.456,0.715,0.456,1.064v-1.241c-0.252-0.291-0.521-0.535-0.691-0.678L21.292,40.701z M31.264,30.915l1.119,4.384  c-0.099,0.016-0.198,0.031-0.299,0.043c-0.009,0.002-0.018,0.002-0.028,0.004c-0.091,0.011-0.181,0.022-0.273,0.032  c-0.031,0.003-0.062,0.006-0.093,0.008c-0.069,0.008-0.14,0.014-0.209,0.02c-0.057,0.004-0.116,0.008-0.173,0.011  c-0.044,0.002-0.087,0.006-0.13,0.007c-0.083,0.005-0.167,0.008-0.251,0.009c-0.019,0.001-0.038,0.002-0.056,0.002  c-0.309,0.005-0.625-0.002-0.949-0.025c0.198,0.026,0.395,0.047,0.587,0.062c0.893,0.067,1.735,0.027,2.527-0.099l-0.556-2.18  L31.264,30.915z M17.875,17.512c-0.063-0.01-0.722-0.164-1.042-0.242c-0.327-0.074-0.717-0.268-1.192-0.268  c-0.401,0-2.168,0.925-2.168,0.925c0.083,0.031,1.218-0.368,1.451-0.415c0.241-0.036,0.219-0.01,0.352,0  c0.017,0.25,0.223,0.313,0.537,0.317c0.319,0,0.532-0.202,0.591-0.283c0.371,0.121,0.934,0.129,1.2,0.092  C17.812,17.609,17.934,17.545,17.875,17.512z M20.038,25.452c0.042,0.018,0.085,0.037,0.128,0.058  c0.019,0.009,0.037,0.017,0.055,0.026c0.039,0.019,0.078,0.037,0.12,0.056c0.058,0.029,0.116,0.06,0.176,0.092  c0.028,0.015,0.059,0.032,0.087,0.046c0.045,0.028,0.095,0.053,0.145,0.083c0.028,0.015,0.054,0.031,0.082,0.047  c0.076,0.046,0.155,0.092,0.237,0.144c0,0,0.016,0.012,0.044,0.03c0.001,0,0.001,0,0.001,0c0.015,0.01,0.033,0.021,0.053,0.035  h0.001c0.277,0.174,1.116,0.641,2.137,0.638c-0.929-0.169-1.586-0.644-1.586-0.644c-1.008-0.624-1.621-0.816-1.945-0.711  C19.855,25.378,19.944,25.411,20.038,25.452L20.038,25.452z M11.198,24.806c-0.017-0.021-0.033-0.041-0.049-0.057  c-0.021-0.034-0.073-0.065-0.139-0.1c-0.179,0.395-0.434,0.641-0.588,0.729c-0.027,0.014-0.057,0.028-0.089,0.04  c-0.02,0.008-0.041,0.014-0.062,0.021c-0.012,0.003-0.023,0.007-0.037,0.011c-0.027,0.008-0.057,0.016-0.087,0.022  c-0.005,0.002-0.009,0.003-0.014,0.004c-0.034,0.008-0.067,0.014-0.102,0.02c0.173,0.013,0.543-0.029,0.757-0.141  c0.119-0.071,0.296-0.235,0.455-0.487c-0.006-0.008-0.013-0.018-0.019-0.026C11.216,24.831,11.207,24.817,11.198,24.806z   M12.174,22.494c0.253-0.557,0.458-1.336,0.499-2.335c0,0,0,0-0.001,0l-0.011-0.992c-0.002-0.038-0.004-0.076-0.006-0.115h0.005  l-0.001-0.109c0,0-0.248-0.526-0.578-0.263c0,0,0.197,0.116,0.214,0.479c0.017,0.364-0.033,1.038-0.033,1.038  c-0.07,0.818-0.254,1.589-0.503,2.259c0.103,0.135,0.286,0.283,0.391,0.398c0.06,0.06,0.292,0.359,0.159,0.766  c-0.164,0.393-0.419,0.965-0.563,1.122c-0.04,0.048-0.069,0.105-0.095,0.165c0.104,0.164,0.195,0.354,0.199,0.372  c0.086-0.008,0.106-0.374,0.265-0.558c0.143-0.163,0.399-0.73,0.56-1.125c0.137-0.406-0.095-0.707-0.154-0.766  C12.431,22.734,12.28,22.611,12.174,22.494z M36.621,29.047l2.363,2.354c-0.089,0.101-0.179,0.202-0.269,0.302  c-0.026,0.027-0.052,0.053-0.078,0.081c-0.066,0.07-0.132,0.142-0.2,0.212c-0.035,0.035-0.069,0.068-0.104,0.104  c-0.059,0.06-0.119,0.119-0.179,0.178c-0.04,0.04-0.082,0.079-0.123,0.117c-0.055,0.054-0.109,0.105-0.164,0.157  c-0.048,0.042-0.094,0.083-0.142,0.125c-0.051,0.047-0.102,0.092-0.154,0.136c-0.051,0.045-0.105,0.089-0.157,0.133  c-0.047,0.04-0.095,0.079-0.144,0.119c-0.058,0.045-0.114,0.092-0.172,0.138c-0.044,0.035-0.088,0.068-0.132,0.102  c-0.064,0.046-0.128,0.095-0.194,0.143c-0.037,0.028-0.075,0.053-0.114,0.082c-0.071,0.05-0.144,0.1-0.216,0.149  c-0.03,0.02-0.061,0.041-0.091,0.06c-0.081,0.053-0.162,0.107-0.247,0.159c-0.016,0.01-0.031,0.019-0.047,0.029  c-0.636,0.39-1.315,0.717-2.042,0.965c-0.005,0.001-0.009,0.003-0.013,0.005l0.127,0.239c2.229-0.619,4.042-1.969,5.509-3.659  l-1.729-1.729L36.621,29.047z M44.68,18.247c-0.069,0.367-0.177,0.903-0.33,1.554c-0.006,0.024-0.012,0.049-0.018,0.073  c-0.023,0.099-0.048,0.202-0.074,0.306c-0.016,0.062-0.031,0.124-0.046,0.187c-0.013,0.052-0.027,0.104-0.041,0.158  c-0.02,0.078-0.041,0.159-0.062,0.241c-0.011,0.038-0.02,0.075-0.031,0.113c-0.031,0.119-0.064,0.24-0.098,0.362  c-0.01,0.037-0.02,0.073-0.029,0.108c-0.034,0.12-0.068,0.241-0.104,0.363c-0.005,0.014-0.008,0.028-0.012,0.042  c-0.042,0.143-0.085,0.287-0.129,0.433c-0.006,0.023-0.013,0.045-0.02,0.066c-0.093,0.303-0.193,0.616-0.301,0.937  c-0.003,0.01-0.006,0.019-0.009,0.028c-0.17,0.5-0.355,1.017-0.562,1.544l0.648,0.097c1.48-3.778,1.962-7.112,1.962-7.112  C45.187,17.923,44.938,18.088,44.68,18.247z M39.359,24.274l3.086,1.388c-0.087,0.205-0.178,0.41-0.271,0.616  c-0.65,1.428-1.446,2.863-2.417,4.162c-0.004,0.005-0.007,0.01-0.011,0.015l0.508,0.275c1.187-1.542,2.125-3.296,2.853-5.004  l-2.984-1.335L39.359,24.274z M25.154,40.544c-0.09-0.001-0.178,0.004-0.265,0.01c-0.014,0.001-0.028,0.002-0.041,0.004  c-0.085,0.008-0.167,0.018-0.247,0.034c-0.051,0.011-0.105,0.017-0.157,0.027c-1.436,2.969-0.411,6.787-0.411,6.787  c0.072,0.015,0.142,0.03,0.209,0.045c1.993,0.456,3.828,1.44,4.144,1.614c0.189,0.014,0.382,0.027,0.584,0.04  c0,0-2.022-1.159-4.292-1.638C24.679,47.468,23.62,43.523,25.154,40.544z M20.372,48.759c-0.1,0.008-0.2,0.022-0.302,0.041  c-0.008,0.001-0.017,0.003-0.026,0.005c-0.095,0.018-0.19,0.039-0.284,0.063c-0.011,0.002-0.021,0.005-0.032,0.008  c-0.096,0.025-0.194,0.054-0.29,0.084c-0.006,0.001-0.012,0.004-0.017,0.005c-0.1,0.033-0.199,0.067-0.297,0.105  c-0.01,0.004-0.019,0.008-0.03,0.011c-0.09,0.035-0.18,0.07-0.267,0.108c-0.012,0.006-0.023,0.01-0.034,0.015  c-0.091,0.039-0.18,0.081-0.268,0.12c-0.003,0.002-0.006,0.004-0.009,0.006c-0.187,0.087-0.361,0.176-0.52,0.262  c-0.07,0.167-0.116,0.342-0.13,0.524c0,0,1.729-1.168,3.152-1.294c2.388-0.217,3.804-0.024,6.702,0.197  C24.354,48.66,22.914,48.53,20.372,48.759z"/>
<path fill="#FFFFFF" d="M16.402,17.545c-0.06,0.081-0.272,0.283-0.591,0.283c-0.314-0.004-0.52-0.067-0.537-0.317  c-0.133-0.01-0.111-0.036-0.352,0c-0.232,0.047-1.368,0.446-1.451,0.415c0,0,1.768-0.925,2.168-0.925  c0.476,0,0.866,0.194,1.192,0.268c0.32,0.078,0.978,0.232,1.042,0.242c0.06,0.034-0.062,0.097-0.272,0.126  C17.336,17.674,16.773,17.666,16.402,17.545z M22.796,42.825c0-0.35-0.203-0.727-0.456-1.064c-0.016-0.023-0.035-0.045-0.052-0.068  c-0.062-0.08-0.128-0.156-0.195-0.229c-0.075-0.082-0.153-0.167-0.245-0.258c-0.018-0.019-0.037-0.042-0.056-0.059  c-0.146-0.141-0.312-0.288-0.502-0.444l1.505,0.378V42.825z M44.774,17.685c-4.865,3.623-14.863,3.451-16.452,3.873  c-1.585,0.414-1.09,1.527-1.09,1.527c-2.213,5.769-6.164,2.919-6.164,2.919c-3.018-1.868-2.482,0.117-1.291,2.428  c-4.719-0.586-0.812-7.121,0.846-8.385c1.77-1.346,3.725-5.061,3.725-5.061c-0.568,0.637-2.269,1.836-6.876,0.881  c-2.04-0.417-3.468,0.856-3.468,0.856c-8.891-0.787-6.622,3.082-6.622,3.082c0.951-1.499,3.59-0.789,3.59-0.789  c0.021,0.547,0.28,0.833,0.613,0.99c-0.071,0.625-0.208,1.4-0.491,2.169c-0.328-0.064-1.123-0.393-1.369-0.356  c-0.697,0.108-0.617,1.122-1.377,1.415c0.072,0.176,0.42,0.412,0.785,0.48c-0.331,0.375-0.308,1.005-0.303,1.081  c0.015,0.286,0.208,0.362,0.217,0.495c0.018,0.182-0.025,0.363-0.014,0.436c0.214-0.08,0.434-0.234,0.588-0.209  c0.142,0.025,0.568-0.015,0.8-0.138c0.154-0.089,0.409-0.334,0.588-0.729c0.065,0.035,0.118,0.066,0.139,0.1  c0.141,0.141,0.329,0.526,0.338,0.555c0.08-0.007,0.103-0.371,0.26-0.562c0.145-0.156,0.4-0.729,0.563-1.122  c0.134-0.406-0.099-0.706-0.159-0.766c-0.105-0.115-0.288-0.263-0.391-0.398c0.249-0.67,0.433-1.441,0.503-2.259l0,0  c0,0,0.05-0.674,0.033-1.038c-0.017-0.363-0.214-0.479-0.214-0.479c0.33-0.263,0.578,0.263,0.578,0.263l0.013,1.216  c0.451-0.041,0.815-0.156,0.815-0.156s2.855-0.285,3.291,0.422c0.442,0.711,0.257,2.572-2.271,7.18  c-2.763,5.044,0.179,9.91,4.282,12.029c1.378,1.013,4.253,3.559,3.885,6.983c0,0-5.262,1.066-5.454,3.438  c0,0,1.727-1.174,3.151-1.297c2.714-0.244,4.172-0.079,8.063,0.334c0,0-2.131-1.216-4.4-1.687c0,0-1.025-3.818,0.411-6.787  c0.052-0.01,0.106-0.016,0.157-0.027c1.743-0.36,4.789,1.34,4.789,1.34l-0.694-1.814c3.221,0.474,4.796,4.262,4.796,4.262  c-0.102-3.194-2.206-6.406-4.677-9.102c0.354,0.056,0.701,0.102,1.039,0.127c0.895,0.068,1.732,0.02,2.528-0.107l-1.119-4.384  l2.214,4.146c2.228-0.62,4.038-1.971,5.506-3.659l-2.363-2.354l2.971,1.614c1.19-1.541,2.123-3.292,2.853-4.999l-3.086-1.388  l3.44,0.523C44.284,21.021,44.774,17.685,44.774,17.685z"/>
<path fill="#231F20" d="M20.623,20.046c-1.658,1.264-5.565,7.798-0.846,8.385c-3.723-1.194-0.098-7.095,1.48-8.297  c1.771-1.338,3.731-5.062,3.731-5.062c-0.154,0.173-0.602,0.412-1.034,0.622C23.294,16.838,21.909,19.068,20.623,20.046z   M29.388,35.358c-0.189-0.022-0.379-0.049-0.572-0.08c0.122,0.133,0.243,0.268,0.364,0.402c0.017,0.021,0.036,0.042,0.054,0.063  c0.115,0.131,0.228,0.262,0.341,0.393c0.02,0.025,0.041,0.049,0.06,0.072c0.115,0.135,0.227,0.271,0.338,0.408  c0.012,0.016,0.025,0.031,0.037,0.045c0.117,0.145,0.23,0.287,0.344,0.434c0.001,0.002,0.002,0.003,0.003,0.005  c0.113,0.146,0.224,0.292,0.332,0.441c0.014,0.018,0.027,0.036,0.041,0.053c0.104,0.144,0.207,0.287,0.307,0.432  c0.014,0.021,0.029,0.042,0.043,0.062c0.101,0.147,0.2,0.297,0.298,0.446c0.006,0.01,0.013,0.02,0.019,0.032  c0.097,0.148,0.191,0.299,0.284,0.449c0.006,0.01,0.011,0.018,0.017,0.028c0.089,0.148,0.176,0.297,0.261,0.446  c0.014,0.026,0.028,0.051,0.043,0.077c0.08,0.145,0.157,0.287,0.231,0.432c0.016,0.03,0.031,0.061,0.047,0.091  c0.072,0.145,0.145,0.289,0.212,0.436c0.011,0.023,0.021,0.045,0.032,0.068c0.059,0.13,0.117,0.26,0.172,0.39  c0.014,0.033,0.028,0.067,0.042,0.101c0.055,0.135,0.108,0.27,0.157,0.406c0.018,0.046,0.035,0.094,0.051,0.142  c0.047,0.129,0.09,0.258,0.131,0.389c0.016,0.052,0.031,0.105,0.046,0.156c0.032,0.107,0.062,0.214,0.089,0.321  c0.019,0.071,0.037,0.143,0.052,0.212c0.023,0.096,0.043,0.19,0.062,0.285c0.008,0.04,0.019,0.08,0.027,0.121  c0.537,0.79,0.8,1.43,0.8,1.43C34.056,41.397,31.816,38.039,29.388,35.358z M28.697,40.119l0.613,1.599  c0.448,0.211,0.737,0.374,0.737,0.374l-0.658-1.809C29.166,40.212,28.938,40.154,28.697,40.119z"/>
<path fill="none" d="M22.14,40.915c0.181,0.158,0.427,0.396,0.656,0.67v-0.506L22.14,40.915z"/>
<path fill="#231F20" d="M52.527,19.328c0.075,0.329,0.206,0.553,0.206,0.553c0.572-0.901,1.759-0.998,2.609-0.934  C54.729,18.834,53.388,18.69,52.527,19.328z"/>
<path fill="none" d="M55.388,24.453c0.077,0.099,0.188,0.18,0.313,0.194c-0.097-0.053-0.221-0.114-0.309-0.2  C55.391,24.449,55.389,24.451,55.388,24.453z"/>
<path fill="#231F20" d="M55.484,22.09c0.027,0.01,0.054,0.018,0.08,0.026c0.035,0.01,0.067,0.02,0.099,0.027  c0.011,0.004,0.021,0.007,0.031,0.01c0.035,0.009,0.068,0.017,0.097,0.023c0.014-0.039,0.026-0.077,0.039-0.116  c-0.371-0.119-0.856-0.292-1.038-0.266c-0.056,0.01-0.106,0.025-0.152,0.046c0.229,0.045,0.556,0.16,0.825,0.245  C55.471,22.087,55.478,22.089,55.484,22.09z M54.394,25.524c-0.03-0.002-0.056-0.004-0.074-0.007  c-0.018-0.003-0.037-0.003-0.056-0.001c-0.009,0-0.017,0.002-0.025,0.004c-0.011,0-0.022,0.002-0.033,0.005  c-0.011,0.003-0.023,0.006-0.034,0.009c-0.009,0.003-0.018,0.006-0.028,0.01c-0.013,0.004-0.027,0.009-0.042,0.015  c0,0,0,0.001-0.001,0.001c-0.005,0.06-0.01,0.111-0.003,0.14c0.138-0.052,0.276-0.132,0.397-0.177  c-0.035,0.002-0.064,0.002-0.093,0.002C54.4,25.524,54.397,25.524,54.394,25.524z M65.99,40.701c0.19,0.156,0.355,0.304,0.501,0.444  c0.019,0.017,0.038,0.04,0.055,0.059c0.093,0.091,0.17,0.176,0.246,0.258c0.066,0.073,0.132,0.149,0.194,0.229  c0.017,0.023,0.036,0.045,0.052,0.068c0.252,0.338,0.456,0.715,0.456,1.064v-1.241c-0.251-0.291-0.522-0.535-0.691-0.678  L65.99,40.701z M75.962,30.915l1.118,4.384c-0.098,0.016-0.198,0.031-0.299,0.043c-0.009,0.002-0.018,0.002-0.027,0.004  c-0.091,0.011-0.182,0.022-0.274,0.032c-0.03,0.003-0.062,0.006-0.093,0.008c-0.069,0.008-0.14,0.014-0.209,0.02  c-0.058,0.004-0.115,0.008-0.173,0.011c-0.043,0.002-0.087,0.006-0.131,0.007c-0.083,0.005-0.167,0.008-0.25,0.009  c-0.019,0.001-0.038,0.002-0.056,0.002c-0.309,0.005-0.624-0.002-0.949-0.025c0.199,0.026,0.394,0.047,0.588,0.062  c0.892,0.067,1.733,0.027,2.526-0.099l-0.556-2.18L75.962,30.915z M62.573,17.512c-0.064-0.01-0.723-0.164-1.042-0.242  c-0.328-0.074-0.718-0.268-1.193-0.268c-0.401,0-2.168,0.925-2.168,0.925c0.083,0.031,1.219-0.368,1.451-0.415  c0.242-0.036,0.22-0.01,0.353,0c0.016,0.25,0.222,0.313,0.537,0.317c0.318,0,0.531-0.202,0.59-0.283  c0.372,0.121,0.935,0.129,1.201,0.092C62.509,17.609,62.631,17.545,62.573,17.512z M64.736,25.452  c0.041,0.018,0.084,0.037,0.129,0.058c0.018,0.009,0.037,0.017,0.055,0.026c0.039,0.019,0.077,0.037,0.119,0.056  c0.058,0.029,0.116,0.06,0.177,0.092c0.028,0.015,0.058,0.032,0.086,0.046c0.047,0.028,0.095,0.053,0.145,0.083  c0.028,0.015,0.055,0.031,0.083,0.047c0.076,0.046,0.155,0.092,0.237,0.144c0,0,0.016,0.012,0.044,0.03h0.001  c0.015,0.01,0.033,0.021,0.053,0.035c0,0,0.001,0,0.002,0c0.277,0.174,1.115,0.641,2.136,0.638  c-0.929-0.169-1.586-0.644-1.586-0.644c-1.008-0.624-1.621-0.816-1.945-0.711C64.553,25.378,64.641,25.411,64.736,25.452  L64.736,25.452z M55.895,24.806c-0.017-0.021-0.034-0.041-0.048-0.057c-0.022-0.034-0.073-0.065-0.139-0.1  c-0.179,0.395-0.435,0.641-0.588,0.729c-0.027,0.014-0.057,0.028-0.09,0.04c-0.019,0.008-0.041,0.014-0.062,0.021  c-0.012,0.003-0.024,0.007-0.036,0.011c-0.029,0.008-0.059,0.016-0.088,0.022c-0.005,0.002-0.009,0.003-0.013,0.004  c-0.034,0.008-0.068,0.014-0.102,0.02c0.172,0.013,0.544-0.029,0.758-0.141c0.119-0.071,0.296-0.235,0.454-0.487  c-0.007-0.008-0.014-0.018-0.02-0.026C55.913,24.831,55.904,24.817,55.895,24.806z M56.873,22.494  c0.253-0.557,0.457-1.336,0.499-2.335c0,0,0,0-0.001,0l-0.011-0.992c-0.003-0.038-0.004-0.076-0.007-0.115h0.006l-0.001-0.109  c0,0-0.249-0.526-0.578-0.263c0,0,0.198,0.116,0.214,0.479c0.017,0.364-0.033,1.038-0.033,1.038  c-0.069,0.818-0.254,1.589-0.503,2.259c0.103,0.135,0.286,0.283,0.392,0.398c0.059,0.06,0.291,0.359,0.157,0.766  c-0.163,0.393-0.418,0.965-0.563,1.122c-0.039,0.048-0.068,0.105-0.094,0.165c0.103,0.164,0.194,0.354,0.199,0.372  c0.086-0.008,0.105-0.374,0.265-0.558c0.144-0.163,0.399-0.73,0.56-1.125c0.138-0.406-0.095-0.707-0.155-0.766  C57.129,22.734,56.979,22.611,56.873,22.494z M81.319,29.047l2.363,2.354c-0.088,0.101-0.178,0.202-0.27,0.302  c-0.026,0.027-0.051,0.053-0.076,0.081c-0.067,0.07-0.134,0.142-0.201,0.212c-0.035,0.035-0.068,0.068-0.103,0.104  c-0.059,0.06-0.119,0.119-0.179,0.178c-0.041,0.04-0.082,0.079-0.123,0.117c-0.056,0.054-0.11,0.105-0.166,0.157  c-0.046,0.042-0.094,0.083-0.141,0.125c-0.051,0.047-0.103,0.092-0.154,0.136c-0.051,0.045-0.104,0.089-0.156,0.133  c-0.049,0.04-0.095,0.079-0.144,0.119c-0.058,0.045-0.115,0.092-0.173,0.138c-0.044,0.035-0.088,0.068-0.132,0.102  c-0.063,0.046-0.128,0.095-0.193,0.143c-0.037,0.028-0.076,0.053-0.114,0.082c-0.072,0.05-0.144,0.1-0.216,0.149  c-0.031,0.02-0.061,0.041-0.092,0.06c-0.082,0.053-0.163,0.107-0.246,0.159c-0.016,0.01-0.032,0.019-0.048,0.029  c-0.636,0.39-1.314,0.717-2.042,0.965c-0.005,0.001-0.009,0.003-0.013,0.005l0.126,0.239c2.229-0.619,4.042-1.969,5.509-3.659  l-1.73-1.729L81.319,29.047z M89.377,18.247c-0.069,0.367-0.176,0.903-0.33,1.554c-0.006,0.024-0.012,0.049-0.018,0.073  c-0.023,0.099-0.047,0.202-0.074,0.306c-0.015,0.062-0.03,0.124-0.046,0.187c-0.013,0.052-0.026,0.104-0.041,0.158  c-0.019,0.078-0.041,0.159-0.061,0.241c-0.01,0.038-0.02,0.075-0.031,0.113c-0.031,0.119-0.063,0.24-0.098,0.362  c-0.01,0.037-0.02,0.073-0.03,0.108c-0.034,0.12-0.068,0.241-0.104,0.363c-0.004,0.014-0.008,0.028-0.012,0.042  c-0.042,0.143-0.084,0.287-0.13,0.433c-0.006,0.023-0.013,0.045-0.02,0.066c-0.093,0.303-0.193,0.616-0.301,0.937  c-0.003,0.01-0.006,0.019-0.009,0.028c-0.169,0.5-0.355,1.017-0.562,1.544l0.647,0.097c1.48-3.778,1.963-7.112,1.963-7.112  C89.885,17.923,89.635,18.088,89.377,18.247z M84.057,24.274l3.085,1.388c-0.086,0.205-0.177,0.41-0.271,0.616  c-0.649,1.428-1.445,2.863-2.417,4.162c-0.004,0.005-0.007,0.01-0.011,0.015l0.508,0.275c1.188-1.542,2.125-3.296,2.853-5.004  l-2.983-1.335L84.057,24.274z M69.851,40.544c-0.09-0.001-0.178,0.004-0.263,0.01c-0.014,0.001-0.028,0.002-0.042,0.004  c-0.084,0.008-0.167,0.018-0.246,0.034c-0.052,0.011-0.106,0.017-0.158,0.027c-1.437,2.969-0.412,6.787-0.412,6.787  c0.072,0.015,0.142,0.03,0.21,0.045c1.992,0.456,3.828,1.44,4.143,1.614c0.19,0.014,0.383,0.027,0.585,0.04  c0,0-2.021-1.159-4.292-1.638C69.377,47.468,68.317,43.523,69.851,40.544z M65.069,48.759c-0.099,0.008-0.199,0.022-0.301,0.041  c-0.009,0.001-0.018,0.003-0.026,0.005c-0.095,0.018-0.189,0.039-0.284,0.063c-0.01,0.002-0.021,0.005-0.031,0.008  c-0.097,0.025-0.194,0.054-0.29,0.084c-0.006,0.001-0.013,0.004-0.018,0.005c-0.1,0.033-0.198,0.067-0.296,0.105  c-0.011,0.004-0.02,0.008-0.03,0.011c-0.091,0.035-0.18,0.07-0.269,0.108c-0.011,0.006-0.021,0.01-0.033,0.015  c-0.091,0.039-0.181,0.081-0.268,0.12c-0.003,0.002-0.006,0.004-0.009,0.006c-0.188,0.087-0.361,0.176-0.519,0.262  c-0.07,0.167-0.116,0.342-0.13,0.524c0,0,1.729-1.168,3.152-1.294c2.388-0.217,3.804-0.024,6.702,0.197  C69.052,48.66,67.611,48.53,65.069,48.759z"/>
<path fill="#FFFFFF" d="M61.099,17.545c-0.059,0.081-0.272,0.283-0.59,0.283c-0.315-0.004-0.521-0.067-0.537-0.317  c-0.133-0.01-0.111-0.036-0.353,0c-0.232,0.047-1.368,0.446-1.451,0.415c0,0,1.768-0.925,2.168-0.925  c0.475,0,0.865,0.194,1.193,0.268c0.319,0.078,0.978,0.232,1.042,0.242c0.058,0.034-0.063,0.097-0.272,0.126  C62.034,17.674,61.471,17.666,61.099,17.545z M67.494,42.825c0-0.35-0.203-0.727-0.456-1.064c-0.017-0.023-0.036-0.045-0.052-0.068  c-0.062-0.08-0.128-0.156-0.194-0.229c-0.075-0.082-0.152-0.167-0.246-0.258c-0.018-0.019-0.037-0.042-0.055-0.059  c-0.146-0.141-0.311-0.288-0.501-0.444l1.504,0.378V42.825z M89.472,17.685c-4.865,3.623-14.863,3.451-16.453,3.873  c-1.585,0.414-1.09,1.527-1.09,1.527c-2.213,5.769-6.163,2.919-6.163,2.919c-3.019-1.868-2.482,0.117-1.291,2.428  c-4.72-0.586-0.813-7.121,0.847-8.385c1.769-1.346,3.725-5.061,3.725-5.061c-0.569,0.637-2.27,1.836-6.877,0.881  c-2.041-0.417-3.468,0.856-3.468,0.856c-8.892-0.787-6.621,3.082-6.621,3.082c0.95-1.499,3.589-0.789,3.589-0.789  c0.021,0.547,0.28,0.833,0.614,0.99c-0.071,0.625-0.21,1.4-0.491,2.169c-0.329-0.064-1.124-0.393-1.368-0.356  c-0.698,0.108-0.618,1.122-1.377,1.415c0.071,0.176,0.42,0.412,0.784,0.48c-0.331,0.375-0.307,1.005-0.303,1.081  c0.016,0.286,0.209,0.362,0.217,0.495c0.019,0.182-0.025,0.363-0.014,0.436c0.214-0.08,0.434-0.234,0.589-0.209  c0.142,0.025,0.567-0.015,0.8-0.138c0.154-0.089,0.409-0.334,0.588-0.729c0.065,0.035,0.117,0.066,0.139,0.1  c0.141,0.141,0.328,0.526,0.337,0.555c0.08-0.007,0.102-0.371,0.26-0.562c0.145-0.156,0.4-0.729,0.563-1.122  c0.134-0.406-0.099-0.706-0.157-0.766c-0.106-0.115-0.289-0.263-0.392-0.398c0.249-0.67,0.434-1.441,0.503-2.259l0,0  c0,0,0.049-0.674,0.033-1.038c-0.016-0.363-0.214-0.479-0.214-0.479c0.33-0.263,0.578,0.263,0.578,0.263l0.013,1.216  c0.45-0.041,0.813-0.156,0.813-0.156s2.856-0.285,3.292,0.422c0.44,0.711,0.256,2.572-2.272,7.18  c-2.764,5.044,0.18,9.91,4.281,12.029c1.378,1.013,4.254,3.559,3.885,6.983c0,0-5.261,1.066-5.454,3.438  c0,0,1.728-1.174,3.152-1.297c2.715-0.244,4.173-0.079,8.063,0.334c0,0-2.131-1.216-4.401-1.687c0,0-1.025-3.818,0.412-6.787  c0.052-0.01,0.106-0.016,0.158-0.027c1.742-0.36,4.787,1.34,4.787,1.34l-0.694-1.814c3.222,0.474,4.796,4.262,4.796,4.262  c-0.101-3.194-2.206-6.406-4.676-9.102c0.354,0.056,0.701,0.102,1.04,0.127c0.895,0.068,1.732,0.02,2.527-0.107l-1.118-4.384  l2.213,4.146c2.229-0.62,4.038-1.971,5.506-3.659l-2.363-2.354l2.972,1.614c1.189-1.541,2.122-3.292,2.852-4.999l-3.085-1.388  l3.441,0.523C88.982,21.021,89.472,17.685,89.472,17.685z"/>
<path fill="#231F20" d="M65.321,20.046c-1.66,1.264-5.566,7.798-0.847,8.385c-3.724-1.194-0.098-7.095,1.479-8.297  c1.77-1.338,3.731-5.062,3.731-5.062c-0.155,0.173-0.602,0.412-1.034,0.622C67.992,16.838,66.607,19.068,65.321,20.046z   M74.085,35.358c-0.188-0.022-0.378-0.049-0.571-0.08c0.122,0.133,0.243,0.268,0.363,0.402c0.018,0.021,0.036,0.042,0.055,0.063  c0.115,0.131,0.228,0.262,0.34,0.393c0.02,0.025,0.041,0.049,0.062,0.072c0.114,0.135,0.227,0.271,0.337,0.408  c0.013,0.016,0.024,0.031,0.038,0.045c0.116,0.145,0.23,0.287,0.342,0.434c0.002,0.002,0.003,0.003,0.004,0.005  c0.113,0.146,0.223,0.292,0.331,0.441c0.014,0.018,0.026,0.036,0.041,0.053c0.105,0.144,0.208,0.287,0.308,0.432  c0.014,0.021,0.028,0.042,0.043,0.062c0.101,0.147,0.201,0.297,0.298,0.446c0.006,0.01,0.013,0.02,0.02,0.032  c0.097,0.148,0.191,0.299,0.283,0.449c0.006,0.01,0.012,0.018,0.017,0.028c0.09,0.148,0.176,0.297,0.26,0.446  c0.015,0.026,0.029,0.051,0.043,0.077c0.081,0.145,0.158,0.287,0.233,0.432c0.015,0.03,0.03,0.061,0.046,0.091  c0.072,0.145,0.144,0.289,0.212,0.436c0.011,0.023,0.021,0.045,0.032,0.068c0.06,0.13,0.116,0.26,0.171,0.39  c0.014,0.033,0.028,0.067,0.042,0.101c0.056,0.135,0.108,0.27,0.157,0.406c0.018,0.046,0.035,0.094,0.052,0.142  c0.045,0.129,0.089,0.258,0.131,0.389c0.015,0.052,0.031,0.105,0.045,0.156c0.032,0.107,0.062,0.214,0.089,0.321  c0.019,0.071,0.037,0.143,0.054,0.212c0.022,0.096,0.042,0.19,0.062,0.285c0.009,0.04,0.02,0.08,0.026,0.121  c0.537,0.79,0.8,1.43,0.8,1.43C78.752,41.397,76.513,38.039,74.085,35.358z M73.394,40.119l0.614,1.599  c0.447,0.211,0.736,0.374,0.736,0.374l-0.658-1.809C73.863,40.212,73.634,40.154,73.394,40.119z"/>
<path fill="none" d="M66.838,40.915c0.18,0.158,0.426,0.396,0.655,0.67v-0.506L66.838,40.915z"/>
<path fill="#231F20" d="M26.604,92.049c0.096,0.412,0.26,0.695,0.26,0.695c0.719-1.133,2.209-1.254,3.277-1.174  C29.371,91.43,27.689,91.249,26.604,92.049z"/>
<path fill="none" d="M30.2,98.487c0.098,0.123,0.236,0.227,0.392,0.242c-0.122-0.064-0.276-0.141-0.387-0.25  C30.203,98.481,30.201,98.485,30.2,98.487z"/>
<path fill="#231F20" d="M30.321,95.522c0.035,0.01,0.068,0.021,0.1,0.031c0.045,0.012,0.085,0.023,0.125,0.033  c0.014,0.006,0.028,0.01,0.041,0.012c0.043,0.012,0.085,0.021,0.121,0.031c0.018-0.051,0.033-0.1,0.05-0.146  c-0.467-0.15-1.075-0.367-1.304-0.334c-0.07,0.012-0.132,0.031-0.191,0.057c0.288,0.059,0.7,0.201,1.036,0.309  C30.304,95.516,30.312,95.518,30.321,95.522z M28.951,99.833c-0.037,0-0.07-0.006-0.094-0.008c-0.021-0.004-0.046-0.004-0.069-0.004  c-0.011,0-0.021,0.004-0.032,0.006c-0.014,0-0.028,0.006-0.043,0.008c-0.013,0.004-0.026,0.006-0.041,0.012  c-0.012,0.004-0.022,0.006-0.035,0.01c-0.017,0.006-0.033,0.012-0.052,0.021c0,0,0,0-0.002,0c-0.006,0.076-0.012,0.139-0.004,0.178  c0.174-0.068,0.348-0.17,0.499-0.225c-0.042,0.002-0.08,0.002-0.117,0.002C28.958,99.833,28.954,99.833,28.951,99.833z   M43.515,118.895c0.239,0.195,0.447,0.383,0.631,0.561c0.023,0.02,0.045,0.047,0.069,0.07c0.116,0.113,0.214,0.221,0.307,0.326  c0.084,0.092,0.166,0.188,0.245,0.289c0.021,0.027,0.044,0.057,0.065,0.084c0.318,0.424,0.572,0.898,0.572,1.338v-1.559  c-0.317-0.365-0.655-0.67-0.867-0.852L43.515,118.895z M56.041,106.604l1.405,5.506c-0.123,0.02-0.249,0.041-0.375,0.055  c-0.012,0.004-0.024,0.004-0.036,0.006c-0.114,0.012-0.228,0.029-0.345,0.039c-0.037,0.004-0.077,0.006-0.116,0.012  c-0.087,0.008-0.175,0.018-0.262,0.023c-0.071,0.006-0.146,0.008-0.218,0.012c-0.056,0.004-0.109,0.01-0.165,0.012  c-0.105,0.004-0.21,0.008-0.315,0.01c-0.022,0-0.046,0.002-0.071,0.002c-0.387,0.006-0.783-0.002-1.19-0.029  c0.25,0.031,0.495,0.059,0.738,0.076c1.121,0.084,2.178,0.035,3.172-0.125l-0.697-2.738L56.041,106.604z M39.224,89.768  c-0.08-0.012-0.908-0.205-1.309-0.301c-0.411-0.094-0.901-0.338-1.497-0.338c-0.504,0-2.724,1.162-2.724,1.162  c0.104,0.037,1.53-0.463,1.821-0.523c0.304-0.041,0.276-0.012,0.442,0c0.021,0.314,0.279,0.395,0.674,0.398  c0.4,0,0.667-0.252,0.742-0.354c0.467,0.15,1.173,0.16,1.508,0.113C39.145,89.891,39.296,89.813,39.224,89.768z M41.941,99.741  c0.052,0.025,0.106,0.049,0.162,0.074c0.022,0.01,0.045,0.02,0.068,0.031c0.049,0.021,0.097,0.045,0.149,0.072  c0.072,0.035,0.146,0.074,0.223,0.113c0.035,0.021,0.072,0.041,0.109,0.062c0.058,0.031,0.119,0.064,0.181,0.104  c0.035,0.018,0.067,0.037,0.103,0.057c0.096,0.059,0.196,0.117,0.299,0.178c0,0,0.02,0.018,0.055,0.041c0.001,0,0.001,0,0.002,0  c0.018,0.014,0.04,0.025,0.066,0.043c0,0,0.001,0,0.002,0c0.349,0.219,1.4,0.805,2.683,0.801c-1.166-0.211-1.992-0.809-1.992-0.809  c-1.266-0.783-2.037-1.023-2.443-0.891C41.711,99.651,41.821,99.692,41.941,99.741C41.94,99.741,41.94,99.741,41.941,99.741z   M30.837,98.932c-0.021-0.027-0.042-0.053-0.062-0.072c-0.026-0.043-0.092-0.082-0.174-0.125c-0.226,0.496-0.545,0.803-0.739,0.916  c-0.034,0.02-0.072,0.033-0.112,0.051c-0.026,0.01-0.052,0.018-0.077,0.023c-0.016,0.006-0.031,0.01-0.046,0.016  c-0.036,0.012-0.073,0.02-0.11,0.029c-0.007,0-0.012,0.002-0.017,0.002c-0.043,0.012-0.085,0.02-0.129,0.025  c0.217,0.018,0.684-0.037,0.953-0.176c0.148-0.09,0.371-0.297,0.57-0.611c-0.009-0.012-0.017-0.021-0.025-0.033  C30.859,98.961,30.848,98.944,30.837,98.932z M32.064,96.03c0.317-0.703,0.574-1.68,0.625-2.934c0,0,0,0-0.001,0l-0.014-1.246  c-0.003-0.049-0.005-0.096-0.009-0.146h0.008l-0.001-0.137c0,0-0.312-0.662-0.726-0.33c0,0,0.249,0.146,0.27,0.602  c0.021,0.457-0.042,1.305-0.042,1.305c-0.087,1.027-0.319,1.996-0.632,2.838c0.129,0.168,0.359,0.354,0.492,0.498  c0.073,0.076,0.366,0.453,0.197,0.961c-0.205,0.494-0.524,1.213-0.707,1.412c-0.049,0.059-0.086,0.131-0.119,0.207  c0.131,0.203,0.245,0.443,0.25,0.465c0.109-0.01,0.132-0.469,0.332-0.701c0.181-0.201,0.502-0.918,0.703-1.412  c0.173-0.512-0.119-0.887-0.193-0.965C32.386,96.327,32.197,96.174,32.064,96.03z M62.77,104.258l2.969,2.957  c-0.112,0.127-0.226,0.254-0.34,0.379c-0.031,0.033-0.064,0.068-0.096,0.102c-0.083,0.09-0.167,0.18-0.252,0.268  c-0.042,0.043-0.086,0.086-0.129,0.131c-0.073,0.074-0.148,0.148-0.225,0.225c-0.05,0.047-0.102,0.096-0.153,0.146  c-0.071,0.064-0.139,0.131-0.208,0.195c-0.059,0.051-0.118,0.105-0.176,0.158c-0.064,0.057-0.128,0.113-0.194,0.17  c-0.064,0.059-0.132,0.111-0.197,0.168c-0.06,0.051-0.119,0.098-0.18,0.148c-0.072,0.057-0.144,0.113-0.218,0.172  c-0.055,0.045-0.111,0.084-0.166,0.129c-0.08,0.059-0.16,0.121-0.241,0.178c-0.048,0.035-0.095,0.068-0.144,0.104  c-0.089,0.062-0.18,0.127-0.272,0.189c-0.038,0.025-0.075,0.049-0.114,0.072c-0.103,0.068-0.205,0.135-0.31,0.201  c-0.02,0.012-0.039,0.023-0.06,0.035c-0.799,0.492-1.651,0.9-2.564,1.215c-0.006,0-0.011,0.004-0.016,0.006l0.158,0.299  c2.8-0.777,5.078-2.475,6.92-4.594l-2.171-2.174L62.77,104.258z M72.891,90.692c-0.087,0.463-0.222,1.135-0.414,1.955  c-0.008,0.027-0.016,0.059-0.022,0.09c-0.031,0.123-0.061,0.252-0.094,0.383c-0.02,0.078-0.038,0.156-0.06,0.238  c-0.016,0.062-0.033,0.127-0.049,0.195c-0.025,0.102-0.052,0.199-0.078,0.303c-0.014,0.047-0.025,0.094-0.04,0.143  c-0.039,0.148-0.079,0.303-0.123,0.455c-0.013,0.047-0.026,0.09-0.037,0.133c-0.043,0.152-0.086,0.305-0.132,0.457  c-0.005,0.02-0.01,0.035-0.015,0.053c-0.052,0.18-0.105,0.359-0.163,0.547c-0.008,0.025-0.017,0.053-0.026,0.08  c-0.116,0.381-0.241,0.775-0.377,1.176c-0.003,0.014-0.007,0.027-0.012,0.039c-0.212,0.627-0.446,1.275-0.705,1.936l0.814,0.125  c1.859-4.748,2.464-8.936,2.464-8.936C73.527,90.286,73.215,90.493,72.891,90.692z M66.208,98.264l3.875,1.744  c-0.109,0.256-0.224,0.514-0.341,0.773c-0.816,1.793-1.816,3.594-3.036,5.227c-0.005,0.006-0.008,0.012-0.014,0.02l0.638,0.342  c1.492-1.936,2.669-4.139,3.584-6.285l-3.749-1.674L66.208,98.264z M48.366,118.7c-0.113-0.002-0.223,0.004-0.332,0.012  c-0.017,0.004-0.035,0.004-0.051,0.006c-0.107,0.01-0.21,0.023-0.309,0.043c-0.065,0.014-0.133,0.02-0.198,0.033  c-1.804,3.729-0.516,8.523-0.516,8.523c0.089,0.018,0.177,0.039,0.262,0.057c2.503,0.572,4.809,1.811,5.205,2.029  c0.237,0.016,0.48,0.033,0.734,0.049c0,0-2.54-1.455-5.391-2.057C47.77,127.395,46.439,122.44,48.366,118.7z M42.359,129.016  c-0.125,0.01-0.251,0.029-0.378,0.051c-0.011,0.002-0.022,0.002-0.033,0.006c-0.12,0.025-0.237,0.049-0.357,0.08  c-0.013,0.002-0.025,0.006-0.04,0.01c-0.121,0.031-0.244,0.066-0.363,0.107c-0.008,0-0.016,0.004-0.022,0.006  c-0.126,0.041-0.25,0.084-0.372,0.131c-0.013,0.006-0.025,0.01-0.039,0.014c-0.113,0.043-0.226,0.088-0.336,0.135  c-0.015,0.008-0.027,0.014-0.042,0.02c-0.115,0.049-0.226,0.1-0.335,0.15c-0.003,0-0.008,0.002-0.012,0.008  c-0.234,0.109-0.453,0.223-0.651,0.328c-0.088,0.213-0.146,0.43-0.164,0.658c0,0,2.172-1.467,3.96-1.625  c2.999-0.271,4.778-0.029,8.417,0.248C47.363,128.893,45.552,128.729,42.359,129.016z"/>
<path fill="#FFFFFF" d="M37.374,89.813c-0.074,0.102-0.342,0.354-0.742,0.354c-0.395-0.004-0.653-0.084-0.674-0.398  c-0.167-0.012-0.139-0.041-0.442,0c-0.292,0.061-1.717,0.561-1.821,0.523c0,0,2.22-1.162,2.724-1.162  c0.596,0,1.086,0.244,1.497,0.338c0.401,0.096,1.229,0.289,1.309,0.301c0.072,0.045-0.079,0.123-0.343,0.158  C38.547,89.973,37.841,89.963,37.374,89.813z M45.404,121.563c0-0.439-0.254-0.914-0.572-1.338  c-0.021-0.027-0.044-0.057-0.065-0.084c-0.079-0.102-0.161-0.197-0.245-0.289c-0.093-0.105-0.191-0.213-0.307-0.326  c-0.024-0.023-0.046-0.051-0.069-0.07c-0.184-0.178-0.392-0.365-0.631-0.561l1.889,0.477V121.563z M73.01,89.987  c-6.11,4.553-18.669,4.332-20.666,4.863c-1.99,0.52-1.369,1.918-1.369,1.918c-2.778,7.246-7.74,3.664-7.74,3.664  c-3.792-2.342-3.119,0.15-1.622,3.053c-5.928-0.736-1.022-8.945,1.062-10.531c2.222-1.691,4.678-6.357,4.678-6.357  c-0.714,0.801-2.85,2.305-8.637,1.107c-2.562-0.523-4.356,1.076-4.356,1.076c-11.168-0.988-8.316,3.869-8.316,3.869  c1.192-1.881,4.509-0.99,4.509-0.99c0.026,0.688,0.352,1.047,0.77,1.244c-0.09,0.785-0.264,1.76-0.617,2.727  c-0.412-0.084-1.411-0.494-1.719-0.449c-0.876,0.135-0.775,1.41-1.729,1.777c0.09,0.221,0.527,0.518,0.985,0.604  c-0.415,0.471-0.385,1.262-0.38,1.357c0.019,0.359,0.262,0.455,0.272,0.619c0.024,0.23-0.031,0.457-0.017,0.547  c0.268-0.098,0.543-0.291,0.739-0.26c0.178,0.031,0.713-0.02,1.005-0.174c0.194-0.113,0.513-0.42,0.739-0.916  c0.082,0.043,0.147,0.082,0.174,0.125c0.176,0.178,0.413,0.66,0.425,0.695c0.1-0.008,0.129-0.465,0.326-0.703  c0.182-0.199,0.502-0.918,0.707-1.412c0.169-0.508-0.124-0.885-0.197-0.961c-0.133-0.145-0.363-0.33-0.492-0.498  c0.313-0.842,0.544-1.811,0.632-2.838l0,0c0,0,0.062-0.848,0.042-1.305c-0.021-0.455-0.27-0.602-0.27-0.602  c0.414-0.332,0.726,0.33,0.726,0.33l0.016,1.529c0.566-0.053,1.024-0.197,1.024-0.197s3.586-0.357,4.134,0.527  c0.554,0.893,0.322,3.232-2.854,9.02c-3.471,6.336,0.227,12.447,5.377,15.107c1.731,1.273,5.343,4.471,4.88,8.773  c0,0-6.609,1.338-6.851,4.318c0,0,2.169-1.473,3.958-1.629c3.41-0.305,5.242-0.1,10.128,0.42c0,0-2.676-1.527-5.527-2.119  c0,0-1.288-4.795,0.516-8.523c0.065-0.014,0.132-0.02,0.198-0.033c2.188-0.453,6.013,1.682,6.013,1.682l-0.871-2.277  c4.046,0.596,6.024,5.352,6.024,5.352c-0.128-4.012-2.771-8.047-5.874-11.432c0.444,0.07,0.88,0.129,1.305,0.16  c1.124,0.086,2.177,0.023,3.175-0.135l-1.405-5.506l2.78,5.207c2.799-0.779,5.073-2.477,6.917-4.596l-2.969-2.957l3.732,2.027  c1.494-1.936,2.667-4.135,3.583-6.277l-3.875-1.744l4.322,0.656C72.394,94.176,73.01,89.987,73.01,89.987z"/>
<path fill="#231F20" d="M42.676,92.954c-2.084,1.586-6.991,9.795-1.062,10.531c-4.677-1.502-0.124-8.912,1.858-10.422  c2.223-1.68,4.686-6.359,4.686-6.359c-0.195,0.219-0.755,0.518-1.298,0.781C46.03,88.922,44.291,91.725,42.676,92.954z   M53.683,112.186c-0.237-0.027-0.474-0.062-0.717-0.102c0.153,0.168,0.305,0.336,0.457,0.508c0.021,0.025,0.044,0.051,0.068,0.076  c0.144,0.164,0.286,0.328,0.429,0.496c0.023,0.029,0.049,0.061,0.076,0.09c0.144,0.168,0.284,0.34,0.424,0.512  c0.015,0.021,0.031,0.039,0.045,0.057c0.146,0.184,0.29,0.361,0.431,0.545c0.002,0.002,0.003,0.006,0.005,0.008  c0.142,0.182,0.279,0.367,0.416,0.553c0.017,0.021,0.034,0.045,0.05,0.068c0.132,0.18,0.261,0.359,0.387,0.541  c0.017,0.027,0.035,0.053,0.053,0.078c0.127,0.186,0.252,0.369,0.375,0.559c0.007,0.012,0.016,0.023,0.024,0.039  c0.123,0.186,0.241,0.375,0.357,0.566c0.006,0.01,0.014,0.021,0.021,0.033c0.113,0.188,0.222,0.375,0.327,0.561  c0.018,0.031,0.036,0.064,0.054,0.098c0.101,0.182,0.198,0.359,0.292,0.543c0.02,0.035,0.039,0.074,0.059,0.113  c0.091,0.18,0.181,0.363,0.268,0.547c0.013,0.029,0.024,0.057,0.038,0.086c0.075,0.162,0.146,0.324,0.216,0.488  c0.019,0.043,0.037,0.086,0.053,0.129c0.069,0.168,0.136,0.338,0.198,0.508c0.021,0.059,0.042,0.117,0.065,0.18  c0.056,0.162,0.111,0.324,0.163,0.488c0.02,0.066,0.039,0.129,0.059,0.195c0.039,0.135,0.077,0.268,0.112,0.402  c0.023,0.09,0.045,0.178,0.066,0.268c0.028,0.119,0.053,0.238,0.077,0.357c0.011,0.051,0.025,0.102,0.035,0.15  c0.673,0.992,1.004,1.799,1.004,1.799C59.547,119.77,56.734,115.551,53.683,112.186z M52.816,118.165l0.771,2.008  c0.561,0.266,0.924,0.471,0.924,0.471l-0.827-2.273C53.405,118.282,53.118,118.209,52.816,118.165z"/>
<path fill="none" d="M44.58,119.165c0.228,0.199,0.537,0.498,0.825,0.844v-0.637L44.58,119.165z"/>
<linearGradient id="SVGID_1_" gradientUnits="userSpaceOnUse" x1="21.0024" y1="76.4243" x2="46.5146" y2="76.4243">
	<stop offset="0" style="stop-color:#FFFFFF"/>
	<stop offset="0.1488" style="stop-color:#F0F1F7"/>
	<stop offset="0.433" style="stop-color:#CACDE0"/>
	<stop offset="0.8203" style="stop-color:#8D93BC"/>
	<stop offset="0.9382" style="stop-color:#7980B1"/>
</linearGradient>
<path fill="url(#SVGID_1_)" d="M34.781,73.168c-0.118-0.018-0.238-0.038-0.355-0.052c-0.176-0.025-0.354-0.047-0.535-0.067  c-5.142-0.483-9.72,1.162-12.102,2.252l-0.787,1.924c0,0,14.468-9.468,25.512,2.66C46.515,79.885,42.459,74.405,34.781,73.168z"/>
<linearGradient id="SVGID_2_" gradientUnits="userSpaceOnUse" x1="58.8979" y1="75.2378" x2="72.583" y2="75.2378">
	<stop offset="0.0955" style="stop-color:#7980B1"/>
	<stop offset="0.3464" style="stop-color:#9AA0C4"/>
	<stop offset="0.8972" style="stop-color:#EFEFF5"/>
	<stop offset="1" style="stop-color:#FFFFFF"/>
</linearGradient>
<path fill="url(#SVGID_2_)" d="M71.982,75.611c-2.452-1.063-7.507-2.897-13.084-2.133c7.468-0.435,13.685,3.7,13.685,3.7  L71.982,75.611z"/>
<linearGradient id="SVGID_3_" gradientUnits="userSpaceOnUse" x1="20.0527" y1="74.4146" x2="37.5508" y2="74.4146">
	<stop offset="0" style="stop-color:#FFFFFF"/>
	<stop offset="0.173" style="stop-color:#F0F1F7"/>
	<stop offset="0.5034" style="stop-color:#CACDE0"/>
	<stop offset="0.9382" style="stop-color:#8F95BE"/>
</linearGradient>
<path fill="url(#SVGID_3_)" d="M20.84,74.432l-0.787,1.753c0,0,8.611-5.033,17.498-2.451C30.483,71.397,23.523,73.388,20.84,74.432z  "/>
<linearGradient id="SVGID_4_" gradientUnits="userSpaceOnUse" x1="53.709" y1="74.6152" x2="73.564" y2="74.6152">
	<stop offset="0.0955" style="stop-color:#8F95BE"/>
	<stop offset="0.3921" style="stop-color:#B0B5D1"/>
	<stop offset="1" style="stop-color:#FFFFFF"/>
</linearGradient>
<path fill="url(#SVGID_4_)" d="M53.709,74.806c9.854-4.083,19.855,1.566,19.855,1.566l-0.652-1.562  C70.159,73.696,61.951,71.043,53.709,74.806z"/>
<path fill="#A17205" d="M46.521,79.819c-9.216-10.121-20.815-5.158-24.404-3.237l-0.368,0.938l0.652,0.434  c0,0,12.229-8.671,22.685,2.059c1.583,1.625,1.756,1.205,3.025,0c11.885-11.342,22.261-2.164,22.647-2.25  c0.393-0.088,0.977-0.43,0.977-0.43l-0.3-0.832c-3.627-1.984-15.216-7.055-24.608,2.896L46.521,79.819z M46.521,79.819   M46.827,79.397"/>
<linearGradient id="SVGID_5_" gradientUnits="userSpaceOnUse" x1="19.647" y1="66.978" x2="47.167" y2="66.978">
	<stop offset="0.732" style="stop-color:#FFFFFF"/>
	<stop offset="1" style="stop-color:#A5AACB"/>
</linearGradient>
<path fill="url(#SVGID_5_)" d="M19.647,75.213c0,0,15.365-7.711,26.901,4.799l0.619-22.629c0,0-10.945-8.027-20.522,0.446  L19.647,75.213z"/>
<linearGradient id="SVGID_6_" gradientUnits="userSpaceOnUse" x1="42.9497" y1="66.8823" x2="55.0968" y2="66.8823">
	<stop offset="0.0955" style="stop-color:#8F95BE"/>
	<stop offset="0.3921" style="stop-color:#B0B5D1"/>
	<stop offset="1" style="stop-color:#FFFFFF"/>
</linearGradient>
<path fill="url(#SVGID_6_)" d="M73.885,75.235c0,0-15.491-7.774-27.337,4.777l0.619-22.629c0,0,11.79-8.4,20.079,0.354  L73.885,75.235z"/>
<path fill="#231F20" d="M29.442,62.646l0.343-0.063c0.384-0.076,0.588-0.34,0.807-1.044l0.279-0.039  c-0.079,0.386-0.153,0.774-0.222,1.162c-0.058,0.376-0.106,0.741-0.167,1.119L30.2,63.817c0.05-0.536-0.04-0.929-0.535-0.844  l-0.303,0.046l-0.495,1.535c-0.167,0.635,0.021,0.648,0.789,0.492l-0.072,0.329c-0.496,0.107-1.076,0.226-1.676,0.346  c-0.518,0.103-0.818,0.185-1.647,0.314l0.126-0.286c0.838-0.169,0.909-0.449,1.118-1.091l0.889-2.715  c0.236-0.766,0.204-1.067-0.456-1.028l0.085-0.272c0.534-0.033,1.266-0.122,1.952-0.254c0.85-0.163,1.639-0.378,2.47-0.632  l-0.128,1.431l-0.392,0.075c0.007-0.989-0.333-0.821-1.275-0.62c-0.617,0.127-0.737,0.161-0.896,0.838L29.442,62.646z"/>
<path fill="#231F20" d="M33.722,61.109c0.136-0.681,0.224-0.95-0.459-0.872l0.08-0.352c0.392-0.067,0.715-0.083,1.187-0.141  c0.494-0.067,0.812-0.134,1.301-0.174l-0.042,0.352c-0.669,0.082-0.843,0.33-0.938,0.971l-0.682,2.71  c-0.151,0.876-0.202,1.09,0.513,1.094l-0.054,0.349c-0.434,0-0.873,0-1.364,0.006c-0.415,0-1.043,0.079-1.46,0.119l0.11-0.336  c0.744-0.083,0.858-0.375,1.055-1.167L33.722,61.109z"/>
<path fill="#231F20" d="M36.938,63.668c-0.1,0.224-0.166,0.334-0.312,0.657c-0.201,0.44,0.272,0.501,0.54,0.552l-0.05,0.339  c-0.304-0.034-0.609-0.078-0.914-0.103c-0.281-0.018-0.56-0.021-0.845-0.034l0.053-0.346c0.628,0.003,0.949-0.75,1.208-1.319  c0.771-1.662,1.777-3.89,1.777-3.89l0.604,0.07c0,0,0.727,3.579,0.842,4.364c0.097,0.677,0.138,0.796,0.208,1.121  c0.045,0.206,0.328,0.443,0.497,0.509l-0.055,0.346c-0.444-0.136-0.698-0.223-1.159-0.331c-0.363-0.079-0.79-0.161-1.254-0.219  l0.057-0.352c0.274,0.04,0.705,0.018,0.678-0.39c-0.008-0.147-0.056-0.57-0.078-0.707l-0.075-0.352c0,0-0.406-0.092-0.838-0.14  c-0.42-0.054-0.751-0.057-0.751-0.057L36.938,63.668z M37.862,62.965c0.386,0.038,0.729,0.095,0.729,0.095l-0.407-2.062  l-0.927,1.926C37.258,62.924,37.537,62.937,37.862,62.965z"/>
<path fill="#231F20" d="M44.487,63.407l-0.303-0.119c0.015-0.781,0.033-1.465-0.421-1.696c-0.432-0.211-0.518,0.019-0.583,0.732  l-0.308,2.962c-0.088,0.806-0.012,1.139,0.568,1.481l-0.041,0.354c-0.461-0.242-0.863-0.428-1.225-0.577  c-0.393-0.159-0.811-0.286-1.271-0.453l0.066-0.33c0.709,0.194,0.744-0.043,0.826-0.845l0.338-2.952  c0.066-0.646,0.164-0.958-0.323-1.13c-0.583-0.212-0.647,0.376-0.833,1.119l-0.311-0.105l0.224-1.742c0,0,1.121,0.244,2.043,0.639  c0.963,0.405,1.696,0.942,1.696,0.942L44.487,63.407z"/>
<path fill="#231F20" d="M51.382,67.078c0.642-0.384,0.634-0.681,0.59-1.427l-0.168-3.022c-0.038-0.753,0.015-1.151-0.714-0.875  l-0.022-0.357c0.454-0.227,0.721-0.348,1.059-0.476c0.452-0.172,0.929-0.323,1.43-0.446l0.021,0.384  c-0.674,0.212-0.61,0.599-0.571,1.351l0.147,2.458c0.043,0.923,0.146,1.43,0.976,1.153c1.055-0.339,1.465-0.767,1.604-1.878  l0.303-0.043l0.036,1.857c-1.435,0.308-2.962,0.875-3.385,1.04c-0.391,0.179-0.877,0.402-1.287,0.627L51.382,67.078z"/>
<path fill="#231F20" d="M55.557,60.299c0.603-0.053,1.012-0.05,1.381-0.064c0.432-0.025,0.835-0.021,1.377-0.018l0.031,0.326  c-0.667,0.011-0.665,0.462-0.59,1.209l0.152,1.444c0.114,1.165,0.514,1.852,1.554,1.804c1.116-0.043,1.087-0.631,0.97-1.736  l-0.16-1.241c-0.038-0.329-0.097-0.748-0.264-1.024c-0.144-0.25-0.336-0.365-0.589-0.399l-0.036-0.325  c0.32,0.021,0.59,0.071,0.887,0.111c0.279,0.04,0.449,0.032,0.799,0.068l0.035,0.326c-0.22,0.004-0.408,0.132-0.482,0.409  c-0.095,0.326-0.009,0.684,0.027,1.039l0.109,0.818c0.192,1.654,0.355,2.485-1.562,2.561c-1.236,0.051-2.494-0.438-2.67-2.336  l-0.165-1.507c-0.077-0.756-0.077-1.144-0.78-1.137L55.557,60.299z"/>
<path fill="#231F20" d="M66.202,65.705c0.279,0.365,0.513,0.663,0.867,0.724l0.05,0.317c-0.533-0.083-0.783-0.147-1.269-0.218  c-0.383-0.066-0.837-0.113-1.264-0.195l-0.038-0.318c0.062,0.01,0.361,0.021,0.426-0.016c0.068-0.032,0.114-0.1,0.108-0.211  c-0.009-0.169-0.289-0.559-0.39-0.708l-0.722-1.096l-0.381,0.587c-0.13,0.191-0.341,0.555-0.318,0.815  c0.027,0.344,0.292,0.413,0.544,0.47l0.026,0.329c-0.392-0.075-0.643-0.133-0.962-0.196c-0.288-0.04-0.559-0.094-0.838-0.133  l-0.02-0.337c0.392,0.05,0.636-0.28,0.847-0.613l0.866-1.324l-1.012-1.525c-0.102-0.22-0.246-0.398-0.376-0.582  c-0.179-0.254-0.325-0.272-0.502-0.387l-0.015-0.333c0.35,0.104,0.736,0.197,1.135,0.278c0.388,0.069,0.767,0.113,1.115,0.155  l0.034,0.361c-0.195-0.014-0.464-0.067-0.441,0.208c0.02,0.186,0.05,0.262,0.188,0.469l0.458,0.686l0.329-0.458  c0.121-0.158,0.194-0.265,0.294-0.434c0.144-0.219-0.2-0.402-0.513-0.444l-0.027-0.349c0.293,0.048,0.525,0.071,0.777,0.091  c0.269,0.014,0.435,0.003,0.684,0l0.114,0.34c-0.377,0-0.527,0.246-0.771,0.624l-0.661,0.981L66.202,65.705z"/>
<path fill="#1F2B7D" d="M163.572,114.131c-1.029,0-3.718,8.145-21.987,8.145c-6.642,0-6.01-1.898-6.01-6.562V77.276  c0-6.88,5.775-4.902,5.775-6.723c0-0.949-0.477-1.105-1.505-1.105c-1.186,0-3.083,0.315-7.591,0.315  c-3.875,0-6.327-0.315-7.988-0.315c-1.028,0-1.583,0.157-1.583,1.028c0,1.58,6.644,1.027,6.644,5.14v40.098  c0,3.715-0.158,5.93-2.213,6.879c-2.532,1.266-3.321,1.107-3.479,2.059c0,0.631,0.474,0.787,1.186,0.787  c3.161,0,6.484-0.236,9.646-0.314c6.012-0.16,12.022,0.314,18.033,0.314c3.479,0,5.22,0.16,7.75-2.688  c1.898-2.055,3.953-4.824,3.953-7.672C164.203,114.92,164.125,114.131,163.572,114.131z"/>
<path fill="#1F2B7D" d="M179.479,118.717V76.25c0-5.933,5.694-4.114,5.694-6.013c0-0.632-0.237-0.791-1.501-0.791  c-2.452,0-4.905,0.317-7.356,0.317c-2.925,0-5.774-0.317-8.699-0.317c-0.632,0-0.791,0.159-0.791,0.871  c0,1.74,6.327,0.158,6.406,5.933v40.491c0,7.83-6.168,5.219-6.168,7.514c0,0.791,0.238,1.186,1.661,1.186  c1.106,0,2.769-0.316,7.591-0.316c3.401,0,6.802,0.316,8.62,0.316c1.344,0,1.583-0.238,1.583-0.791  C186.519,122.278,179.479,124.094,179.479,118.717z"/>
<path fill="#1F2B7D" d="M242.744,69.446c-1.107,0-2.294,0.317-6.09,0.317c-1.741,0-3.481-0.317-5.221-0.317  c-0.79,0-1.186,0.238-1.186,1.029c0,1.819,5.061,0.316,5.061,3.954c0.317,1.662-0.631,4.193-1.107,5.378l-13.76,33.928  c-0.396,0.949-0.632,2.215-1.424,2.215c-0.869,0-1.421-1.818-3.163-6.012l-13.841-32.584c-0.315-0.709-0.712-1.975-0.712-3.083  c0-2.848,3.323-2.926,3.245-4.034c0-0.475-0.634-0.792-1.108-0.792c-1.107,0-4.114,0.317-6.25,0.317  c-2.372,0-4.824-0.317-7.275-0.317c-0.712,0-1.106,0.396-1.106,1.107c0,1.74,4.112,0.237,6.088,4.984l19.537,46.186  c0.71,1.66,1.659,4.982,2.925,4.982c1.187,0,1.741-2.611,2.61-4.588l19.691-46.581c2.215-5.299,4.429-3.323,4.429-5.062  C244.087,69.763,243.614,69.446,242.744,69.446z"/>
<path fill="#1F2B7D" d="M288.558,114.131c-1.029,0-3.717,8.146-21.986,8.146c-6.644,0-6.011-1.9-6.011-6.564v-14.553  c0-1.186-0.236-2.531,1.425-2.531h11.703c6.644,0,3.956,6.959,6.407,6.959c0.555,0,0.87-0.314,0.87-1.027  c0-2.137-0.158-4.191-0.158-6.248c0-2.531,0.158-5.219,0.158-7.988c0-0.633-0.238-1.502-0.87-1.502  c-1.898,0,0.237,6.326-7.987,6.326h-8.542c-3.163,0-3.006,0-3.006-2.688V77.75c0-5.299-0.157-4.983,7.433-4.983  c3.165,0,11.391-0.474,13.443,2.215c1.27,1.821,0,5.614,1.902,5.614c0.473,0,1.58-0.631,1.58-9.409c0-0.95-0.158-1.742-0.792-1.742  c-2.45,0-9.727,0.317-11.31,0.317c-3.32,0-7.433-0.317-22.379-0.317c-2.294,0-2.769,0.317-2.769,0.95  c0,0.948,1.739,1.107,2.372,1.265c4.272,0.633,4.272,4.43,4.272,7.988v36.064c0,3.717-0.16,5.93-2.216,6.879  c-2.531,1.266-3.32,1.107-3.479,2.059c0,0.631,0.475,0.787,1.187,0.787c3.163,0,6.484-0.236,9.647-0.316  c6.01-0.156,12.022,0.316,18.032,0.316c3.48,0,5.221,0.16,7.75-2.688c1.898-2.057,3.953-4.824,3.953-7.672  C289.188,114.92,289.111,114.131,288.558,114.131z"/>
<path fill="#1F2B7D" d="M420.18,68.734c-16.211,0-29.022,11.942-29.022,28.393c0,16.688,10.517,28.865,27.68,28.865  c17.635,0,29.895-11.467,29.895-29.26C448.731,80.36,436.314,68.734,420.18,68.734z M422.157,123.62  c-15.658,0-25.229-14.156-25.229-28.785c0-12.498,7.592-23.491,20.879-23.491c15.422,0,25.149,14.001,25.149,28.396  C442.957,114.368,433.704,123.62,422.157,123.62z"/>
<path fill="#1F2B7D" d="M483.696,68.734c-16.21,0-29.023,11.942-29.023,28.393c0,16.688,10.518,28.865,27.68,28.865  c17.637,0,29.895-11.467,29.895-29.26C512.247,80.36,499.831,68.734,483.696,68.734z M485.673,123.62  c-15.656,0-25.227-14.156-25.227-28.785c0-12.498,7.592-23.491,20.877-23.491c15.424,0,25.151,14.001,25.151,28.396  C506.475,114.368,497.22,123.62,485.673,123.62z"/>
<path fill="#1F2B7D" d="M556.01,114.131c-1.03,0-3.718,8.145-21.986,8.145c-6.644,0-6.011-1.898-6.011-6.562V77.276  c0-6.88,5.772-4.902,5.772-6.723c0-0.949-0.474-1.105-1.501-1.105c-1.186,0-3.084,0.315-7.593,0.315  c-3.876,0-6.328-0.315-7.989-0.315c-1.028,0-1.582,0.157-1.582,1.028c0,1.58,6.643,1.027,6.643,5.14v40.098  c0,3.715-0.158,5.93-2.214,6.879c-2.53,1.266-3.321,1.107-3.48,2.059c0,0.631,0.476,0.787,1.187,0.787  c3.166,0,6.486-0.236,9.65-0.314c6.01-0.16,12.022,0.314,18.032,0.314c3.479,0,5.218,0.16,7.749-2.688  c1.896-2.055,3.955-4.824,3.955-7.672C556.642,114.92,556.562,114.131,556.01,114.131z"/>
<rect x="104.874" y="56.664" fill="#A17205" width="462.055" height="1.201"/>
<rect x="203.686" y="17.536" fill="#A17205" width="3.449" height="27.718"/>
<polygon fill="#A17205" points="280.628,42.179 265.919,42.179 265.919,32.622 280.34,32.622 280.34,29.546 265.919,29.546   265.919,20.613 280.628,20.613 280.628,17.538 262.471,17.538 262.471,45.254 280.628,45.254 "/>
<polygon fill="#A17205" points="236.964,45.254 248.102,17.538 244.154,17.538 234.803,41.474 225.453,17.538 221.505,17.538   232.683,45.254 "/>
<polygon fill="#A17205" points="166.953,23.148 183.118,45.254 186.443,45.254 186.443,17.538 182.994,17.538 182.994,39.188   167.036,17.538 163.503,17.538 163.503,45.254 166.953,45.254 "/>
<path fill="#A17205" d="M134.915,45.753c7.523,0,11.345-4.404,11.345-11.303V17.538h-3.492v16.87c0,5.069-2.742,8.27-7.854,8.27  s-7.812-3.2-7.812-8.27v-16.87h-3.49v16.953C123.612,41.308,127.435,45.753,134.915,45.753z"/>
<polygon fill="#A17205" points="528.024,32.622 542.442,32.622 542.442,29.546 528.024,29.546 528.024,20.613 542.733,20.613   542.733,17.538 524.574,17.538 524.574,45.254 528.024,45.254 "/>
<polygon fill="#A17205" points="434.662,45.254 438.11,45.254 438.11,33.537 448.999,17.538 444.969,17.538 436.366,30.42   427.765,17.538 423.733,17.538 434.662,33.537 "/>
<polygon fill="#A17205" points="397.104,45.254 400.552,45.254 400.552,20.613 409.362,20.613 409.362,17.538 388.335,17.538   388.335,20.613 397.104,20.613 "/>
<path fill="#A17205" d="M301.321,34.244h5.568l7.022,11.01h4.073l-7.48-11.301c3.781-0.333,7.231-3.075,7.231-8.064  c0-5.111-3.657-8.351-8.728-8.351h-11.137v27.716h3.449V34.244z M301.321,20.613h7.271c3.283,0,5.568,2.119,5.568,5.275  c0,3.119-2.285,5.321-5.568,5.321h-7.271V20.613z"/>
<path fill="#A17205" d="M494.614,45.753c8.188,0,13.796-6.15,13.796-14.335c0-8.188-5.608-14.339-13.796-14.339  c-8.186,0-13.756,6.151-13.756,14.339C480.858,39.603,486.429,45.753,494.614,45.753z M494.614,20.154  c6.191,0,10.224,4.781,10.224,11.264c0,6.44-4.032,11.26-10.224,11.26c-6.234,0-10.182-4.82-10.182-11.26  C484.433,24.935,488.38,20.154,494.614,20.154z"/>
<rect x="368.731" y="17.536" fill="#A17205" width="3.449" height="27.718"/>
<path fill="#A17205" d="M342.995,42.678c-3.905,0-6.897-1.911-8.684-3.988l-2.078,2.66c2.285,2.576,5.859,4.404,10.639,4.404  c7.479,0,10.223-4.154,10.223-8.145c0-10.347-16.415-6.773-16.415-13.007c0-2.618,2.41-4.404,5.692-4.404  c3.035,0,5.943,0.996,8.021,3.323l2.078-2.535c-2.328-2.452-5.611-3.907-9.808-3.907c-5.486,0-9.558,3.161-9.558,7.731  c0,9.89,16.414,5.901,16.414,13.048C349.521,40.018,347.941,42.678,342.995,42.678z"/>
<path fill="#1F2B7D" d="M359.354,74.587c0-2.373,1.739-2.373,4.271-2.373c9.096,0,16.451,5.062,16.451,14.632  c0,7.117-4.746,10.992-12.812,10.992c-2.848,0-4.507-0.475-5.141-0.475c-0.396,0-0.79,0.158-0.79,0.711  c0,1.426,4.585,1.82,5.376,1.82c16.846,0,19.218-12.021,19.218-15.186c0-11.784-11.149-15.262-21.194-15.262  c-3.797,0-5.061,0.315-9.016,0.315c-4.588,0-7.357-0.315-8.068-0.315c-0.631,0-1.027,0.553-1.027,1.184  c0,2.849,6.486-1.976,6.486,7.515v37.883c0,8.777-6.17,6.324-6.17,8.461c0,0.711,0.79,0.947,1.267,0.947  c2.294,0,4.903-0.314,8.62-0.314c4.665,0,5.852,0.314,8.541,0.314c1.978,0,2.293-0.393,2.293-0.947c0-2.688-8.304,1.424-8.304-9.965  V74.587z"/>
<path fill="#1F2B7D" d="M321.399,96.809c5.535-2.213,9.965-7.512,9.965-13.682c0-15.262-17.479-13.682-18.744-13.682  c-4.111,0-8.619,0.317-13.207,0.317c-4.031,0-3.639-0.317-5.062-0.317c-0.948,0-1.58,0.476-1.58,0.95  c0,2.69,6.801-0.553,6.801,7.039v40.256c0,6.01-5.774,4.902-5.774,6.881c0,0.475,0.317,0.867,0.791,0.867  c3.007,0,6.013-0.316,9.019-0.316c6.561,0,8.383,0.316,9.092,0.316c0.635,0,1.346,0.16,1.346-0.631c0-2.689-8.225-0.236-8.225-7.039  v-16.688c0-0.791-0.475-2.215,2.055-2.215c8.857,0,7.671-0.236,10.521,4.193l8.777,13.84c3.005,4.508,6.091,8.539,11.862,8.539  c0.713,0,5.143,0,5.143-0.947c0-1.898-3.875,1.027-9.571-7.67L321.399,96.809z M305.819,74.982c0-3.084,1.661-2.927,4.51-2.927  c7.748,0,15.104,3.242,15.104,12.89c0,9.809-7.593,11.232-10.992,11.232c-3.719,0-8.621,0.396-8.621-1.107V74.982z"/>
</svg>